HIERARCHY
ROOT root
{
	OFFSET 0.000000 0.000000 0.000000
	CHANNELS 6 Xposition Yposition Zposition Zrotation Yrotation Xrotation
	JOINT lhip
	{
		OFFSET 0.058581 -0.082280 -0.017664
		CHANNELS 3 Zrotation Yrotation Xrotation
		JOINT lknee
		{
			OFFSET 0.043451 -0.386469 0.008037
			CHANNELS 3 Zrotation Yrotation Xrotation
			JOINT lankle
			{
				OFFSET -0.014790 -0.426874 -0.037428
				CHANNELS 3 Zrotation Yrotation Xrotation
				JOINT ltoe
				{
					OFFSET 0.041054 -0.060286 0.122042
					CHANNELS 3 Zrotation Yrotation Xrotation
					End Site
					{
						OFFSET 0.000000 0.000000 0.000000
					}
				}
			}
		}
	}
	JOINT rhip
	{
		OFFSET -0.060310 -0.090513 -0.013543
		CHANNELS 3 Zrotation Yrotation Xrotation
		JOINT rknee
		{
			OFFSET -0.043257 -0.383688 -0.004843
			CHANNELS 3 Zrotation Yrotation Xrotation
			JOINT rankle
			{
				OFFSET 0.019056 -0.420046 -0.034562
				CHANNELS 3 Zrotation Yrotation Xrotation
				JOINT rtoe
				{
					OFFSET -0.034840 -0.062106 0.130323
					CHANNELS 3 Zrotation Yrotation Xrotation
					End Site
					{
						OFFSET 0.000000 0.000000 0.000000
					}
				}
			}
		}
	}
	JOINT lowerback
	{
		OFFSET 0.004439 0.124404 -0.038385
		CHANNELS 3 Zrotation Yrotation Xrotation
		JOINT upperback
		{
			OFFSET 0.004488 0.137956 0.026820
			CHANNELS 3 Zrotation Yrotation Xrotation
			JOINT chest
			{
				OFFSET -0.002265 0.056032 0.002855
				CHANNELS 3 Zrotation Yrotation Xrotation
				JOINT lowerneck
				{
					OFFSET -0.013390 0.211636 -0.033468
					CHANNELS 3 Zrotation Yrotation Xrotation
					JOINT upperneck
					{
						OFFSET 0.010113 0.088937 0.050410
						CHANNELS 3 Zrotation Yrotation Xrotation
						End Site
						{
							OFFSET 0.000000 0.000000 0.000000
						}
					}
				}
				JOINT lclavicle
				{
					OFFSET 0.071702 0.114000 -0.018898
					CHANNELS 3 Zrotation Yrotation Xrotation
					JOINT lshoulder
					{
						OFFSET 0.122921 0.045205 -0.019046
						CHANNELS 3 Zrotation Yrotation Xrotation
						JOINT lelbow
						{
							OFFSET 0.255332 -0.015649 -0.022946
							CHANNELS 3 Zrotation Yrotation Xrotation
							JOINT lwrist
							{
								OFFSET 0.265709 0.012698 -0.007375
								CHANNELS 3 Zrotation Yrotation Xrotation
								End Site
								{
									OFFSET 0.000000 0.000000 0.000000
								}
							}
						}
					}
				}
				JOINT rclavicle
				{
					OFFSET -0.082954 0.112472 -0.023707
					CHANNELS 3 Zrotation Yrotation Xrotation
					JOINT rshoulder
					{
						OFFSET -0.113228 0.046853 -0.008472
						CHANNELS 3 Zrotation Yrotation Xrotation
						JOINT relbow
						{
							OFFSET -0.260127 -0.014369 -0.031269
							CHANNELS 3 Zrotation Yrotation Xrotation
							JOINT rwrist
							{
								OFFSET -0.269108 0.006794 -0.006027
								CHANNELS 3 Zrotation Yrotation Xrotation
								End Site
								{
									OFFSET 0.000000 0.000000 0.000000
								}
							}
						}
					}
				}
			}
		}
	}
}
MOTION
Frames: 6
Frame Time: 0.033333
-0.012715 0.342943 0.963310 -8.268177 -0.174222 83.837078 0.908777 -3.869832 -26.340839 -2.439082 8.100754 19.326429 2.531042 11.187902 -2.696999 0.000000 -0.000000 0.000000 0.082100 -0.441781 20.432009 0.349623 8.639837 19.500838 2.746326 -4.923452 -14.639856 0.000000 -0.000000 0.000000 -2.195418 11.033824 9.887315 1.271188 -0.988190 5.583404 0.990580 3.435728 1.803228 1.261262 3.392738 -6.694161 -3.028647 -4.960079 -2.520538 -21.200028 4.665992 0.824238 -57.116024 14.044856 1.985456 4.719250 4.160411 8.304772 1.545690 -1.498658 -0.547296 23.726972 12.320879 -1.165679 44.517154 30.928133 12.449799 -10.469246 48.220293 8.011449 -3.095724 4.566607 -1.329387 
-0.008332 0.293227 0.968022 -6.992751 -1.847612 84.689000 -1.484784 -7.126916 -25.846774 -3.061550 7.426561 22.662245 6.246990 13.299288 -5.009395 0.000000 -0.000000 0.000000 -0.249501 1.518066 18.297203 0.138491 7.542676 27.297107 5.663346 -6.086272 -6.186193 0.000000 -0.000000 0.000000 -4.772356 10.867160 8.605798 1.247117 -1.166508 4.931545 0.627809 3.186917 1.928559 2.251017 3.003850 -6.890718 -1.959765 -4.858438 -1.427948 -22.155001 4.096497 0.886303 -56.282893 12.183104 3.089104 4.247108 5.809068 7.480827 -0.133555 -1.976052 0.128304 25.170346 10.219071 -0.863988 47.172214 26.809060 14.800301 -13.282491 49.024597 5.789393 -0.642964 4.451882 -1.849374 
-0.002843 0.245700 0.977063 -5.620865 -3.622680 85.475035 -3.200359 -14.249287 -23.196678 -3.205366 10.339461 21.596541 8.726501 16.713697 -6.407117 0.000000 -0.000000 0.000000 -0.990270 5.352308 13.654133 1.388145 3.740134 37.191534 9.248805 -9.352845 9.474194 0.000000 -0.000000 0.000000 -7.696713 10.813379 6.199090 2.011869 -1.387993 7.276328 -0.000693 2.765318 0.655325 3.736563 3.225388 -6.761081 -1.594550 -6.508151 0.000227 -21.633096 2.842648 1.946474 -58.265992 7.849107 3.695073 5.212112 7.173076 4.159237 -3.484115 -1.551204 4.543765 25.532210 7.859609 -0.665486 49.966455 22.603911 17.358045 -15.294858 48.200376 3.930989 4.909425 2.079987 -2.666923 
0.001513 0.201802 0.985882 -4.008868 -4.141035 85.530003 -5.498915 -16.163572 -18.967879 -3.595366 9.671146 19.349139 11.132804 17.805791 -7.627662 0.000000 -0.000000 0.000000 -0.948898 7.456988 8.368597 3.053894 1.600238 46.493794 7.043419 -12.938263 22.366042 0.000000 -0.000000 0.000000 -9.015636 9.179619 5.856507 2.397701 -1.097616 7.593966 0.075590 2.365323 0.390482 3.533235 2.110824 -6.155008 -0.698337 -4.638201 0.363141 -21.404694 1.619231 2.436591 -60.228436 4.039908 5.391695 5.164789 5.636550 2.793938 -3.150277 -1.480804 4.671543 24.780972 6.185130 -0.747863 52.845510 18.323161 19.464442 -14.772437 44.980294 4.277188 8.593708 0.847554 -3.227024 
0.004912 0.160701 0.994157 -3.073062 -4.031139 85.247519 -7.439363 -14.453027 -14.225326 -4.252204 6.567231 16.845329 11.919189 18.351824 -8.929194 0.000000 -0.000000 0.000000 -1.183236 7.707033 2.161335 4.917518 1.194379 55.257367 5.912215 -13.432152 21.657795 0.000000 -0.000000 0.000000 -9.315580 7.119170 6.351910 2.536636 -0.854305 7.543543 0.181988 1.999665 0.508524 3.399060 2.048196 -5.805780 -0.093576 -3.479228 0.723160 -21.397621 0.587130 2.127560 -61.446362 0.784278 7.240357 4.827636 1.433061 2.548178 -1.922539 -2.220854 1.807154 24.401337 5.089016 -0.785205 54.401903 15.079865 19.611754 -11.463238 39.904819 7.472848 12.498805 -0.353836 -2.510357 
0.008032 0.121016 1.002307 -2.402635 -3.404679 84.568003 -8.308434 -11.655714 -9.328971 -4.853207 3.318947 14.433844 11.242193 18.352004 -10.367112 0.000000 -0.000000 0.000000 -0.826921 6.795749 -3.996494 5.304401 1.454227 61.593290 4.848494 -11.777749 16.712934 0.000000 -0.000000 0.000000 -8.649211 5.106019 7.633211 2.378241 -0.917144 7.351270 0.391875 1.406944 0.366704 2.731577 2.930931 -4.942918 0.495349 -2.132783 0.400438 -21.741566 -0.331607 1.408110 -61.497596 -1.704930 8.385066 4.661063 -5.086371 2.690841 -0.053445 -2.624650 0.608605 24.294163 4.526095 -0.072758 54.751020 12.556415 18.392309 -8.237567 33.482448 10.918551 14.350577 -1.569833 0.918887 
